<?xml version="1.0" encoding="UTF-8"?>
<svg xmlns="http://www.w3.org/2000/svg" viewBox="0 0 64 64" width="512" height="512"><g id="stars-delicious-rate-prize-comment"><path d="M29.192,18.157l-1.1,2.43a1,1,0,0,0,1.469,1.243L32,20.187l2.442,1.643a1,1,0,0,0,1.469-1.243l-1.1-2.43,1.8-1.36A1,1,0,0,0,36,15H33.7l-.745-2.307a1,1,0,0,0-1.9,0L30.3,15H28a1,1,0,0,0-.6,1.8ZM31.031,17a1,1,0,0,0,.952-.693L32,16.254l.017.053a1,1,0,0,0,.952.693h.055l-.061.046a1,1,0,0,0-.328,1.157l-.077-.051a1,1,0,0,0-1.116,0l-.077.051a1,1,0,0,0-.328-1.157L30.976,17Z"/><path d="M16.192,23.157l-1.1,2.43a1,1,0,0,0,1.469,1.243L19,25.187l2.442,1.643a1,1,0,0,0,1.469-1.243l-1.1-2.43,1.8-1.36A1,1,0,0,0,23,20H20.7l-.745-2.307a1,1,0,0,0-1.9,0L17.3,20H15a1,1,0,0,0-.6,1.8ZM18.031,22a1,1,0,0,0,.952-.693L19,21.254l.017.053a1,1,0,0,0,.952.693h.055l-.061.046a1,1,0,0,0-.328,1.157l-.077-.051a1,1,0,0,0-1.116,0l-.077.051a1,1,0,0,0-.328-1.157L17.976,22Z"/><path d="M5.192,31.157l-1.1,2.43A1,1,0,0,0,5.558,34.83L8,33.187l2.442,1.643a1,1,0,0,0,1.469-1.243l-1.1-2.43,1.8-1.36A1,1,0,0,0,12,28H9.7l-.745-2.307a1,1,0,0,0-1.9,0L6.3,28H4a1,1,0,0,0-.6,1.8ZM7.031,30a1,1,0,0,0,.952-.693L8,29.254l.017.053A1,1,0,0,0,8.969,30h.055l-.061.046A1,1,0,0,0,8.635,31.2l-.077-.051a1,1,0,0,0-1.116,0l-.077.051a1,1,0,0,0-.328-1.157L6.976,30Z"/><path d="M42.192,22.157l-1.1,2.43a1,1,0,0,0,1.469,1.243L45,24.187l2.442,1.643a1,1,0,0,0,1.469-1.243l-1.1-2.43,1.8-1.36A1,1,0,0,0,49,19H46.7l-.745-2.307a1,1,0,0,0-1.9,0L43.3,19H41a1,1,0,0,0-.6,1.8ZM44.031,21a1,1,0,0,0,.952-.693L45,20.254l.017.053a1,1,0,0,0,.952.693h.055l-.061.046a1,1,0,0,0-.328,1.157l-.077-.051a1,1,0,0,0-1.116,0l-.077.051a1,1,0,0,0-.328-1.157L43.976,21Z"/><path d="M53.192,31.157l-1.1,2.43a1,1,0,0,0,1.469,1.243L56,33.187l2.442,1.643a1,1,0,0,0,1.469-1.243l-1.1-2.43,1.8-1.36A1,1,0,0,0,60,28H57.7l-.745-2.307a1,1,0,0,0-1.9,0L54.3,28H52a1,1,0,0,0-.6,1.8ZM55.031,30a1,1,0,0,0,.952-.693L56,29.254l.017.053a1,1,0,0,0,.952.693h.055l-.061.046a1,1,0,0,0-.328,1.157l-.077-.051a1,1,0,0,0-1.116,0l-.077.051a1,1,0,0,0-.328-1.157L54.976,30Z"/><path d="M59.98,56.18A27.044,27.044,0,0,0,36,30.17V30a4,4,0,0,0-8,0v.17A27.044,27.044,0,0,0,4.02,56.18,2.991,2.991,0,0,0,5,62H59a2.991,2.991,0,0,0,.98-5.82ZM30,30a2.006,2.006,0,0,1,2-2,2.015,2.015,0,0,1,2,2v.03c-.33-.02-.66-.03-1-.03H31c-.34,0-.67.01-1,.03Zm1,2h2A25.035,25.035,0,0,1,57.98,56H6.02A25.035,25.035,0,0,1,31,32ZM59,60H5a1,1,0,0,1,0-2H59a1,1,0,0,1,0,2Z"/></g></svg>
