<svg id="Icons" height="512" viewBox="0 0 74 74" width="512" xmlns="http://www.w3.org/2000/svg"><path d="m27.954 54.511h-24.954v-1a12.477 12.477 0 0 1 24.954 0zm-22.907-2h20.86a10.479 10.479 0 0 0 -20.859 0z"/><path d="m15.491 63.915a10.416 10.416 0 0 1 -10.4-10.4h2a8.39 8.39 0 1 0 16.781 0h2a10.4 10.4 0 0 1 -10.381 10.4z"/><path d="m15.491 59.547a6.043 6.043 0 0 1 -6.036-6.036h2a4.022 4.022 0 1 0 8.044 0h2a6.029 6.029 0 0 1 -6.008 6.036z"/><path d="m52.356 63.917a10.438 10.438 0 0 1 -10.063-13.066l1.934.513a8.408 8.408 0 1 0 16.539 2.144 8.9 8.9 0 0 0 -.273-2.157l1.94-.485a10.9 10.9 0 0 1 .333 2.643 10.422 10.422 0 0 1 -10.41 10.408z"/><path d="m52.356 59.464a5.961 5.961 0 0 1 -5.2-8.843l1.748.972a3.946 3.946 0 1 0 6.91 0l1.748-.972a5.962 5.962 0 0 1 -5.2 8.843z"/><path d="m64.724 52.112h-38.024v-2h35.861a20.614 20.614 0 0 0 -11.761-16.164l-.189-.092.87-1.8.191.092a22.554 22.554 0 0 1 12.979 18.9z"/><path d="m13.768 42.372h-2v-4.511a27.551 27.551 0 0 1 5.938-17.049l1.171-1.478 1.567 1.242-1.171 1.478a25.543 25.543 0 0 0 -5.506 15.807z"/><path d="m29.886 43.027a18.069 18.069 0 0 1 -2.739-.225 9.242 9.242 0 0 1 -6.364-3.663c-4.747-6.871 1.267-17.224 1.525-17.662l1.722 1.017c-.057.1-5.621 9.691-1.6 15.508a7.28 7.28 0 0 0 5.022 2.823c3.142.482 5.441.1 7.031-1.168 1.542-1.231 2.432-3.364 2.643-6.338l2 .142c-.253 3.555-1.394 6.166-3.391 7.759a9.034 9.034 0 0 1 -5.849 1.807z"/><path d="m24.292 22.987h-2.122v-12.963h2.122a6.294 6.294 0 0 1 6.287 6.287v.389a6.294 6.294 0 0 1 -6.287 6.287zm-.122-2h.122a4.291 4.291 0 0 0 4.286-4.287v-.389a4.291 4.291 0 0 0 -4.287-4.287h-.121z"/><path d="m22.2 21.568a5.062 5.062 0 0 1 0-10.125 4.713 4.713 0 0 1 1.237.174l-.527 1.93a2.756 2.756 0 0 0 -.71-.1 3.062 3.062 0 0 0 0 6.125 2.756 2.756 0 0 0 .71-.1l.527 1.93a4.713 4.713 0 0 1 -1.237.166z"/><path d="m50.3 33.953h-12.244a3.476 3.476 0 1 1 0-6.953h12.244a3.476 3.476 0 0 1 0 6.953zm-12.244-4.953a1.476 1.476 0 1 0 0 2.953h12.244a1.476 1.476 0 0 0 0-2.953z"/><path d="m60.598 40.821-1.441-1.387 8.542-8.881v-2.553h2v3.359z"/><path d="m73 29h-19v-17h19zm-17-2h15v-13h-15z"/><path d="m33.884 19.458h-4.61v-2h4.609a.952.952 0 1 0 0-1.9h-4.609v-2h4.609a2.952 2.952 0 1 1 0 5.9z"/><path d="m50.298 27h5.092v2h-5.092z"/><path d="m63 13h2v4h-2z"/></svg>